<svg xmlns="http://www.w3.org/2000/svg" viewBox="0 0 177.3 20.02" fill="#121212">
    <path d="M95.24 11.73a4.57 4.57 0 0 1-9.13 0V0h-4v11.73a8.52 8.52 0 0 0 17 0V0h-3.87Z"/>
    <path d="M10.32 3.82a6.49 6.49 0 0 1 4.38 1.67L17 2.34A10.48 10.48 0 0 0 10.32 0a10 10 0 0 0-.69 20h.69A10.54 10.54 0 0 0 17 17.62l-2.3-3.16a6.45 6.45 0 0 1-4.38 1.68 6.16 6.16 0 1 1-.41-12.32h.41"/>
    <path d="M53.24 13.41 43.63 0h-3.94v20h3.94V6.55L53.24 20h3.94V0h-3.94v13.4Z"/>
    <path d="M61.6 0v3.8h6.09V20h3.94V3.82h6.1V0Z"/>
    <path d="M166.48 0v3.8h2.15V20h3.94V0Z"/>
    <path d="M22.22 0v20H36v-3.86h-9.84v-4.26h7.89V8.07h-7.89V3.82H36V0Z"/>
    <path d="M112.55 9.59h-5V3.82h5a2.89 2.89 0 1 1 .18 5.77h-.18m6.93-2.88A6.82 6.82 0 0 0 112.55 0h-8.92v20h4v-6.6h2.52l4.65 6.6h4.68l-4.91-6.85a6.74 6.74 0 0 0 4.91-6.4"/>
    <path d="M136.74 0 131 8.07 125.17 0h-4.69L129 11.86V20h4v-8.14L141.43 0Z"/>
    <path d="m161.46 10 .1-.14A6.3 6.3 0 1 0 150 6.31v.24h3.81v-.24a2.5 2.5 0 0 1 2.5-2.5 2.41 2.41 0 0 1 2.5 2.32v.18a5 5 0 0 1-.8 1.94L149.93 20H163v-3.86h-5.8l4.27-6.14Z"/>
    <path d="M175.22 18.28h.35a.57.57 0 0 0 .34-.07.25.25 0 0 0 .09-.21.24.24 0 0 0-.05-.14.2.2 0 0 0-.12-.1 1.33 1.33 0 0 0-.28 0h-.33v.54Zm-.29 1v-1.77h.61a1.41 1.41 0 0 1 .46 0 .41.41 0 0 1 .22.17.45.45 0 0 1 .08.26.49.49 0 0 1-.14.34.62.62 0 0 1-.37.16.51.51 0 0 1 .16.09c.09.11.18.23.26.35l.21.35h-.34l-.16-.28a1.73 1.73 0 0 0-.3-.41.32.32 0 0 0-.23-.06h-.17v.75Zm.73-2.28a1.36 1.36 0 0 0-.68.18 1.29 1.29 0 0 0-.51.5 1.4 1.4 0 0 0-.19.69 1.34 1.34 0 0 0 .19.68 1.2 1.2 0 0 0 .51.51 1.33 1.33 0 0 0 1.36 0 1.25 1.25 0 0 0 .51-.51 1.33 1.33 0 0 0 .18-.68 1.39 1.39 0 0 0-.18-.69 1.25 1.25 0 0 0-.52-.5 1.29 1.29 0 0 0-.67-.18m0-.28a1.79 1.79 0 0 1 .81.22 1.49 1.49 0 0 1 .61.61 1.61 1.61 0 0 1 0 1.64 1.53 1.53 0 0 1-.6.61 1.65 1.65 0 0 1-1.64 0 1.49 1.49 0 0 1-.61-.61 1.61 1.61 0 0 1 0-1.64 1.44 1.44 0 0 1 .61-.61 1.79 1.79 0 0 1 .81-.22"/>
</svg>