<?xml version="1.0" encoding="utf-8"?>
<!-- Generator: Adobe Illustrator 21.1.0, SVG Export Plug-In . SVG Version: 6.00 Build 0)  -->
<svg version="1.1" id="Capa_1" xmlns="http://www.w3.org/2000/svg" xmlns:xlink="http://www.w3.org/1999/xlink" x="0px" y="0px"
	 viewBox="0 0 693 217" style="enable-background:new 0 0 693 217;" xml:space="preserve">
<style type="text/css">
	.st0{fill:#BCB08A;}
</style>
<g>
	<path class="st0" d="M370.9,84.8c0,8.5-6.9,15.3-15.3,15.3c-8.5,0-15.3-6.9-15.3-15.3V44H327v40.8c0,15.8,12.8,28.6,28.6,28.6
		s28.6-12.8,28.6-28.6V44H371v40.8H370.9z"/>
	<path class="st0" d="M75,57.2c5.7,0,10.8,2.2,14.7,5.8l7.6-11c-6-5.1-13.8-8.1-22.3-8.1c-19.1,0-34.7,15.5-34.7,34.7
		c0,19.1,15.5,34.7,34.7,34.7c8.5,0,16.3-3,22.3-8.1l-7.6-11c-3.8,3.6-9,5.8-14.7,5.8c-11.8,0-21.4-9.6-21.4-21.4
		C53.6,66.9,63.2,57.2,75,57.2"/>
	<polygon class="st0" points="224.3,90.6 192,44 178.8,44 178.8,113.3 192,113.3 192,66.7 224.3,113.3 237.5,113.3 237.5,44 
		224.3,44 	"/>
	<polygon class="st0" points="255.2,44 255.2,57.2 275.6,57.2 275.6,113.3 288.9,113.3 288.9,57.2 309.3,57.2 309.3,44 	"/>
	<polygon class="st0" points="620.3,44 620.3,57.2 627.5,57.2 627.5,113.3 640.8,113.3 640.8,44 	"/>
	<polygon class="st0" points="114.9,44 114.9,113.3 161.1,113.3 161.1,100.1 128.2,100.1 128.2,85.3 154.6,85.3 154.6,72 128.2,72 
		128.2,57.2 161.1,57.2 161.1,44 	"/>
	<path class="st0" d="M455,67.3c0-12.8-10.4-23.3-23.3-23.3h-29.9v69.3H415V90.5h8.5l15.8,22.8H455l-16.5-23.8
		C448,86.6,455,77.7,455,67.3 M431.7,77.3H415V57.2h16.7c5.5,0,10,4.5,10,10C441.7,72.8,437.2,77.3,431.7,77.3"/>
	<polygon class="st0" points="515.6,44 496.2,72 476.8,44 461.1,44 489.6,85.2 489.6,113.3 502.8,113.3 502.8,85.2 531.4,44 	"/>
	<path class="st0" d="M601.6,78.6l0.3-0.5c2.4-3.5,3.7-7.7,3.7-12.2c0-1.8-0.2-3.5-0.6-5.2c-2.3-9.6-11-16.7-21.3-16.7
		c-12.1,0-21.9,9.8-21.9,21.9c0,0.3,0,0.5,0,0.8h13.3c0-0.3,0-0.5,0-0.8c0-4.8,3.9-8.7,8.7-8.7s8.9,3.6,8.7,8.7
		c-0.1,2.2-2,5.7-2.8,6.7c-0.7,1.1-28.2,40.7-28.2,40.7H607v-13.2h-20.2L601.6,78.6z"/>
	<path class="st0" d="M651.9,101.8c1,0,1.9,0.2,2.8,0.7c0.9,0.5,1.6,1.2,2.1,2.1s0.8,1.9,0.8,2.9s-0.3,1.9-0.8,2.8s-1.2,1.6-2.1,2.1
		c-0.9,0.5-1.9,0.8-2.8,0.8c-1,0-1.9-0.3-2.8-0.8c-0.9-0.5-1.6-1.2-2.1-2.1s-0.8-1.9-0.8-2.8c0-1,0.3-2,0.8-2.9s1.2-1.6,2.1-2.1
		S651,101.8,651.9,101.8 M651.9,102.7c-0.8,0-1.6,0.2-2.3,0.6c-0.8,0.4-1.4,1-1.8,1.8c-0.4,0.8-0.6,1.6-0.6,2.4s0.2,1.6,0.6,2.4
		c0.4,0.8,1,1.3,1.8,1.8c0.8,0.4,1.6,0.6,2.4,0.6c0.8,0,1.6-0.2,2.4-0.6c0.8-0.4,1.3-1,1.8-1.8c0.4-0.8,0.6-1.5,0.6-2.4
		c0-0.8-0.2-1.6-0.6-2.4c-0.4-0.8-1-1.4-1.8-1.8C653.5,102.9,652.7,102.7,651.9,102.7 M649.4,110.7v-6.2h2.1c0.7,0,1.2,0.1,1.6,0.2
		c0.3,0.1,0.6,0.3,0.8,0.6c0.2,0.3,0.3,0.6,0.3,0.9c0,0.5-0.2,0.8-0.5,1.2c-0.3,0.3-0.7,0.5-1.3,0.6c0.2,0.1,0.4,0.2,0.5,0.3
		c0.2,0.2,0.6,0.7,0.9,1.2l0.8,1.2h-1.2l-0.5-1c-0.4-0.8-0.8-1.2-1-1.4c-0.2-0.1-0.4-0.2-0.8-0.2h-0.6v2.6L649.4,110.7L649.4,110.7z
		 M650.4,107.2h1.2c0.6,0,1-0.1,1.2-0.3c0.2-0.2,0.3-0.4,0.3-0.7c0-0.2-0.1-0.3-0.2-0.5c-0.1-0.1-0.2-0.2-0.4-0.3
		c-0.2-0.1-0.5-0.1-1-0.1h-1.1V107.2z"/>
</g>
<g>
	<path class="st0" d="M241.5,175.4h-16.6l-3.4,8h-6.3l14.7-33h6.8l14.7,33H245L241.5,175.4z M239.2,170l-5.9-13.9l-5.9,13.9H239.2z"
		/>
	<path class="st0" d="M273.9,159.6l-1.6,5.2c-1-0.3-2.1-0.5-3.1-0.5c-1.2,0-2.4,0.2-3.5,0.7s-2,1.2-2.6,2.1c-0.7,0.9-1,2-1,3.3v13
		h-5.5v-23.7h4.9l0.3,3.7c0.9-1.4,2.1-2.4,3.6-3.2c1.5-0.8,3.1-1.2,4.9-1.2C271.5,159.1,272.7,159.3,273.9,159.6z"/>
	<path class="st0" d="M301.8,163.2l-4.2,0.3c0.8,1.3,1.2,2.8,1.2,4.4c0,1.8-0.5,3.3-1.4,4.6c-0.9,1.3-2.2,2.4-3.9,3.1
		c-1.7,0.7-3.6,1.1-5.8,1.1c-1.1,0-2.1-0.1-3.1-0.3h-0.4c-0.8,0-1.5,0.2-1.9,0.5c-0.5,0.3-0.7,0.8-0.7,1.4c0,1.1,0.9,1.7,2.6,1.7
		h4.1c4.5,0,7.9,0.6,10,1.8c2.1,1.2,3.2,3.2,3.2,5.8c0,2.8-1.1,4.8-3.2,6.1c-2.1,1.3-5.5,2-9.9,2s-7.8-0.7-10.1-2.1
		c-2.3-1.4-3.5-3.3-3.5-5.7c0-2.3,1.2-4,3.6-5.1c-1.4-1.1-2-2.5-2-4.1c0-1.1,0.3-2,0.9-2.8s1.4-1.3,2.4-1.7c-1-0.8-1.7-1.7-2.2-2.8
		c-0.5-1.1-0.8-2.3-0.8-3.6c0-1.8,0.5-3.3,1.4-4.6c0.9-1.3,2.2-2.4,3.8-3.1c1.7-0.7,3.6-1.1,5.7-1.1c1.4,0,2.8,0.2,4.1,0.5h9.9v3.7
		H301.8z M294.5,185.4c-1.1-0.5-3.1-0.7-6-0.7h-4.4h-0.7c-1.8,0.7-2.7,1.7-2.7,3.1c0,2.3,2.7,3.4,8,3.4c2.7,0,4.7-0.3,5.8-0.8
		c1.1-0.5,1.7-1.4,1.7-2.7C296.2,186.6,295.6,185.8,294.5,185.4z M292.1,171.1c1-0.7,1.5-1.7,1.5-3.1c0-1.3-0.5-2.3-1.5-3
		s-2.4-1.1-4.2-1.1c-1.8,0-3.2,0.4-4.2,1.1s-1.5,1.8-1.5,3c0,1.3,0.5,2.3,1.5,3s2.4,1.1,4.2,1.1
		C289.6,172.1,291.1,171.8,292.1,171.1z"/>
	<path class="st0" d="M313.1,177.7c1.4,1,3.2,1.5,5.4,1.5c1.4,0,2.6-0.2,3.9-0.7c1.2-0.4,2.3-1.1,3.3-1.9l3.5,3.6
		c-1.3,1.2-2.9,2.1-4.7,2.8c-1.8,0.7-3.7,1-5.8,1c-2.7,0-5.1-0.5-7.1-1.5c-2.1-1-3.7-2.5-4.9-4.3c-1.2-1.9-1.8-4.1-1.8-6.6
		c0-2.4,0.6-4.6,1.7-6.5s2.7-3.4,4.8-4.4c2-1.1,4.4-1.6,7-1.6s4.8,0.5,6.7,1.6c1.9,1.1,3.3,2.4,4.2,4.1c1,1.7,1.4,3.5,1.4,5.5
		c0,0.4,0,1-0.1,1.6s-0.2,1.2-0.3,1.7h-19.8C310.7,175.3,311.6,176.7,313.1,177.7z M313.1,165.4c-1.3,0.9-2.2,2.2-2.6,3.9H325
		c-0.2-1.5-0.8-2.8-2.1-3.8c-1.2-1-2.9-1.5-4.9-1.5C316.1,164,314.4,164.5,313.1,165.4z"/>
	<path class="st0" d="M355.8,160.3c1.6,0.8,2.8,1.9,3.7,3.3c0.9,1.4,1.3,3.1,1.3,5v14.9h-5.5v-13.8c0-1.6-0.6-2.9-1.7-3.9
		s-2.6-1.5-4.4-1.5c-1.9,0-3.5,0.5-5,1.5c-1.4,1-2.1,2.4-2.1,4.1v13.6h-5.5v-23.7h4.9l0.3,3.3c0.9-1.3,2.1-2.2,3.6-2.9
		c1.5-0.7,3.2-1,5-1C352.5,159.1,354.2,159.5,355.8,160.3z"/>
	<path class="st0" d="M387.6,181.7c-2,1.6-4.5,2.4-7.6,2.4s-5.5-0.8-7.2-2.3s-2.5-3.8-2.5-6.7v-10.3h-5.2v-5h5.2v-7.6h5.5v7.6H386v5
		h-10.2v9.9c0,2.8,1.5,4.2,4.6,4.2c1.8,0,3.4-0.5,4.8-1.7L387.6,181.7z"/>
	<path class="st0" d="M394.7,155.5c-0.7-0.7-1-1.5-1-2.5c0-0.9,0.3-1.8,1-2.4c0.7-0.7,1.5-1,2.5-1s1.8,0.3,2.5,1s1,1.5,1,2.4
		c0,1-0.3,1.8-1,2.5s-1.5,1-2.5,1S395.3,156.1,394.7,155.5z M399.9,183.5h-5.5v-23.7h5.5V183.5z"/>
	<path class="st0" d="M427.6,160.3c1.6,0.8,2.8,1.9,3.7,3.3c0.9,1.4,1.3,3.1,1.3,5v14.9h-5.5v-13.8c0-1.6-0.6-2.9-1.7-3.9
		s-2.6-1.5-4.4-1.5c-1.9,0-3.5,0.5-5,1.5c-1.4,1-2.1,2.4-2.1,4.1v13.6h-5.5v-23.7h4.9l0.3,3.3c0.9-1.3,2.1-2.2,3.6-2.9
		c1.5-0.7,3.2-1,5-1C424.2,159.1,426,159.5,427.6,160.3z"/>
	<path class="st0" d="M460,161.7c1.9,1.7,2.8,4.2,2.8,7.5v14.2H458l-0.4-3.6c-1,1.4-2.4,2.4-4.1,3.1s-3.5,1.1-5.3,1.1
		c-1.6,0-3.1-0.3-4.5-0.9s-2.5-1.5-3.3-2.6c-0.8-1.2-1.3-2.5-1.3-4.1c0-2.5,1-4.5,3.1-5.7c2.1-1.3,4.5-1.9,7.4-1.9
		c2.6,0,5.1,0.3,7.7,1v-0.5c0-3.5-2.1-5.2-6.4-5.2c-1.4,0-2.8,0.2-4.2,0.6c-1.4,0.4-2.7,1-3.8,1.8l-2.2-4c1.4-1,3-1.8,5-2.4
		c1.9-0.6,4-0.9,6.2-0.9C455.4,159.1,458.1,160,460,161.7z M453.3,178.6c1.2-0.5,2.2-1.1,2.9-2c0.8-0.8,1.2-1.8,1.2-3
		c-2.1-0.6-4.4-0.9-6.7-0.9c-1.8,0-3.2,0.3-4.3,0.8c-1.1,0.6-1.6,1.4-1.6,2.6c0,1,0.4,1.8,1.3,2.3c0.8,0.6,2,0.8,3.4,0.8
		C450.8,179.4,452.1,179.1,453.3,178.6z"/>
</g>
</svg>
